<svg width="50" height="34" viewBox="0 0 50 34" fill="none" xmlns="http://www.w3.org/2000/svg">
<path fill-rule="evenodd" clip-rule="evenodd" d="M49.0234 4.2244H28.6888V0.959154C28.6888 0.429371 28.2516 0 27.7122 0H22.2878C21.7484 0 21.3112 0.429371 21.3112 0.959154V4.2244H0.976562C0.437164 4.2244 0 4.65377 0 5.18355V22.4903C0 23.0201 0.437164 23.4494 0.976562 23.4494C1.51596 23.4494 1.95312 23.0201 1.95312 22.4903V6.1427H21.3112V9.40795C21.3112 9.93736 21.7484 10.3671 22.2878 10.3671H27.7122C28.2516 10.3671 28.6888 9.93736 28.6888 9.40795V6.1427H48.0469V8.06101C48.0469 8.59079 48.484 9.02017 49.0234 9.02017C49.5628 9.02017 50 8.59079 50 8.06101V5.18355C50 4.65377 49.5628 4.2244 49.0234 4.2244ZM26.7357 8.4488H23.2643V1.91831H26.7357V8.4488Z" fill="url(#paint0_linear)"/>
<path fill-rule="evenodd" clip-rule="evenodd" d="M49.0234 14.7734C48.484 14.7734 48.0469 15.2028 48.0469 15.7326V32.0802H1.95312V30.1615C1.95312 29.6317 1.51596 29.2023 0.976562 29.2023C0.437164 29.2023 0 29.6317 0 30.1615V33.0393C0 33.5691 0.437164 33.9985 0.976562 33.9985H49.0234C49.5628 33.9985 50 33.5691 50 33.0393V15.7326C50 15.2028 49.5628 14.7734 49.0234 14.7734Z" fill="url(#paint1_linear)"/>
<path fill-rule="evenodd" clip-rule="evenodd" d="M4.54675 27.203C4.54675 27.7328 4.98392 28.1622 5.52332 28.1622H22.7692H22.7715C23.3105 28.1622 23.748 27.7328 23.748 27.203C23.748 27.1813 23.7473 27.1599 23.7457 27.139C23.719 23.015 21.1105 19.4961 17.469 18.1398C18.3689 17.2852 18.9289 16.0873 18.9289 14.764C18.9289 12.1735 16.7835 10.0664 14.1461 10.0664C11.509 10.0664 9.36357 12.1735 9.36357 14.764C9.36357 16.0873 9.92357 17.2852 10.8235 18.1398C7.16325 19.5028 4.54675 23.0513 4.54675 27.203ZM14.1461 11.9847C15.7063 11.9847 16.9758 13.2312 16.9758 14.7636C16.9758 16.2964 15.7063 17.5429 14.1461 17.5429C12.5858 17.5429 11.3163 16.2964 11.3163 14.7636C11.3167 13.2312 12.5858 11.9847 14.1461 11.9847ZM14.1461 19.4612C18.0416 19.4612 21.2666 22.426 21.7343 26.2439H6.55786C7.02592 22.426 10.2505 19.4612 14.1461 19.4612Z" fill="url(#paint2_linear)"/>
<path fill-rule="evenodd" clip-rule="evenodd" d="M30.1022 25.5316H43.9602C44.4996 25.5316 44.9368 25.1022 44.9368 24.5724C44.9368 24.0427 44.4996 23.6133 43.9602 23.6133H30.1022C29.5632 23.6133 29.1256 24.0427 29.1256 24.5724C29.1256 25.1022 29.5632 25.5316 30.1022 25.5316Z" fill="url(#paint3_linear)"/>
<path fill-rule="evenodd" clip-rule="evenodd" d="M30.1022 14.6097H43.9602C44.4996 14.6097 44.9368 14.1803 44.9368 13.6506C44.9368 13.1208 44.4996 12.6914 43.9602 12.6914H30.1022C29.5632 12.6914 29.1256 13.1208 29.1256 13.6506C29.1256 14.1803 29.5632 14.6097 30.1022 14.6097Z" fill="url(#paint4_linear)"/>
<path fill-rule="evenodd" clip-rule="evenodd" d="M30.1022 20.0707H43.9602C44.4996 20.0707 44.9368 19.6413 44.9368 19.1115C44.9368 18.5817 44.4996 18.1523 43.9602 18.1523H30.1022C29.5632 18.1523 29.1256 18.5817 29.1256 19.1115C29.1256 19.6413 29.5632 20.0707 30.1022 20.0707Z" fill="url(#paint5_linear)"/>
<path fill-rule="evenodd" clip-rule="evenodd" d="M0.976562 27.2855C1.51443 27.2855 1.95312 26.8546 1.95312 26.3263C1.95312 25.7981 1.51443 25.3672 0.976562 25.3672C0.43869 25.3672 0 25.7981 0 26.3263C0 26.8543 0.43869 27.2855 0.976562 27.2855Z" fill="url(#paint6_linear)"/>
<path fill-rule="evenodd" clip-rule="evenodd" d="M49.0234 10.9375C48.4856 10.9375 48.0469 11.3684 48.0469 11.8967C48.0469 12.4249 48.4856 12.8558 49.0234 12.8558C49.5613 12.8558 50 12.4249 50 11.8967C50 11.3684 49.5613 10.9375 49.0234 10.9375Z" fill="url(#paint7_linear)"/>
<defs>
<linearGradient id="paint0_linear" x1="25" y1="0" x2="25" y2="23.4494" gradientUnits="userSpaceOnUse">
<stop stop-color="#1B4899"/>
<stop offset="1" stop-color="#019BD2"/>
</linearGradient>
<linearGradient id="paint1_linear" x1="25" y1="14.7734" x2="25" y2="33.9985" gradientUnits="userSpaceOnUse">
<stop stop-color="#1B4899"/>
<stop offset="1" stop-color="#019BD2"/>
</linearGradient>
<linearGradient id="paint2_linear" x1="14.1474" y1="10.0664" x2="14.1474" y2="28.1622" gradientUnits="userSpaceOnUse">
<stop stop-color="#1B4899"/>
<stop offset="1" stop-color="#019BD2"/>
</linearGradient>
<linearGradient id="paint3_linear" x1="37.0312" y1="23.6133" x2="37.0312" y2="25.5316" gradientUnits="userSpaceOnUse">
<stop stop-color="#1B4899"/>
<stop offset="1" stop-color="#019BD2"/>
</linearGradient>
<linearGradient id="paint4_linear" x1="37.0312" y1="12.6914" x2="37.0312" y2="14.6097" gradientUnits="userSpaceOnUse">
<stop stop-color="#1B4899"/>
<stop offset="1" stop-color="#019BD2"/>
</linearGradient>
<linearGradient id="paint5_linear" x1="37.0312" y1="18.1523" x2="37.0312" y2="20.0707" gradientUnits="userSpaceOnUse">
<stop stop-color="#1B4899"/>
<stop offset="1" stop-color="#019BD2"/>
</linearGradient>
<linearGradient id="paint6_linear" x1="0.976562" y1="25.3672" x2="0.976562" y2="27.2855" gradientUnits="userSpaceOnUse">
<stop stop-color="#1B4899"/>
<stop offset="1" stop-color="#019BD2"/>
</linearGradient>
<linearGradient id="paint7_linear" x1="49.0234" y1="10.9375" x2="49.0234" y2="12.8558" gradientUnits="userSpaceOnUse">
<stop stop-color="#1B4899"/>
<stop offset="1" stop-color="#019BD2"/>
</linearGradient>
</defs>
</svg>
