<svg width="50" height="34" viewBox="0 0 50 34" fill="none" xmlns="http://www.w3.org/2000/svg">
<path d="M32.7765 24.4703C32.2933 23.6192 32.0378 22.576 32.0378 21.4465C32.0378 19.5483 33.7108 18.0031 35.7633 18.0031C37.8197 18.0031 39.4888 19.5484 39.4888 21.4465C39.4888 21.6623 39.6685 21.8387 39.8881 21.8387C40.1078 21.8387 40.2874 21.6623 40.2874 21.4465C40.2874 19.113 38.259 17.2188 35.7633 17.2188C33.2677 17.2188 31.2391 19.1169 31.2391 21.4465C31.2391 22.7094 31.5306 23.8899 32.0817 24.8546C32.6207 25.7998 32.9961 26.2351 33.6869 26.9214C33.7667 26.9999 33.8666 27.0391 33.9704 27.0391C34.0702 27.0391 34.174 27.0038 34.2459 26.9214C34.4056 26.7724 34.4056 26.5214 34.2499 26.3685C33.635 25.7606 33.2916 25.3724 32.7765 24.4703Z" fill="url(#paint0_linear)"/>
<path d="M31.3234 13.4099C32.693 12.6765 34.1864 12.3039 35.7716 12.3039C37.3609 12.3039 38.6905 12.6373 40.2199 13.4138C40.2798 13.4413 40.3397 13.4569 40.4036 13.4569C40.5474 13.4569 40.6871 13.3785 40.759 13.2451C40.8588 13.053 40.7829 12.8137 40.5873 12.7157C38.9581 11.8882 37.4727 11.5195 35.7716 11.5195C34.0546 11.5195 32.4295 11.9235 30.94 12.7196C30.7444 12.8255 30.6765 13.0608 30.7803 13.253C30.8881 13.4452 31.1277 13.5119 31.3234 13.4099Z" fill="url(#paint1_linear)"/>
<path d="M35.7356 15.3086C33.1601 15.3086 30.8042 16.7244 29.7381 18.9128C29.3747 19.654 29.191 20.509 29.191 21.4502C29.191 22.5091 29.3827 23.521 29.774 24.5524C29.8539 24.7564 30.0815 24.8583 30.2891 24.7838C30.4968 24.7054 30.6006 24.4818 30.5247 24.2779C30.0495 23.0268 29.9936 22.0621 29.9936 21.4502C29.9936 20.6266 30.1493 19.8854 30.4608 19.2501C31.3952 17.3283 33.4676 16.0891 35.7396 16.0891C38.9301 16.0891 41.5255 18.4932 41.5255 21.4502C41.5255 22.2934 40.7788 22.9758 39.8644 22.9758C38.95 22.9758 38.2033 22.2895 38.2033 21.4502C38.2033 20.1756 37.1013 19.1402 35.7436 19.1402C34.386 19.1402 33.2839 20.1756 33.2839 21.4502C33.2839 22.9994 33.8988 24.4544 35.0129 25.5447C35.8754 26.3879 36.7059 26.8507 37.9797 27.1919C38.0116 27.2036 38.0476 27.2076 38.0835 27.2076C38.2592 27.2076 38.4189 27.0938 38.4668 26.9213C38.5267 26.7134 38.399 26.4977 38.1873 26.4389C37.0613 26.1369 36.3265 25.729 35.5719 24.9917C34.6095 24.0504 34.0785 22.7915 34.0785 21.4542C34.0785 20.611 34.8252 19.9286 35.7396 19.9286C36.6539 19.9286 37.4007 20.6149 37.4007 21.4542C37.4007 22.7288 38.5067 23.7642 39.8604 23.7642C41.214 23.7642 42.3201 22.7288 42.3201 21.4542C42.3202 18.0657 39.3653 15.3086 35.7356 15.3086Z" fill="url(#paint2_linear)"/>
<path d="M42.8791 16.9334C42.0845 15.8431 41.0782 14.9881 39.8843 14.3842C37.3687 13.1135 34.1583 13.1174 31.6467 14.392C30.4487 14.9999 29.4385 15.8627 28.6479 16.9608C28.5201 17.1373 28.564 17.3805 28.7437 17.506C28.8156 17.553 28.8954 17.5766 28.9753 17.5766C29.0991 17.5766 29.2229 17.5217 29.3028 17.4158C30.0175 16.4196 30.9319 15.6392 32.014 15.0901C34.3021 13.9293 37.229 13.9253 39.521 15.0823C40.5991 15.6235 41.5095 16.4 42.2283 17.3884C42.356 17.5648 42.6076 17.6041 42.7873 17.4786C42.967 17.353 43.0069 17.1098 42.8791 16.9334Z" fill="url(#paint3_linear)"/>
<path d="M40.5273 24.7295C40.2078 24.7844 39.8844 24.804 39.6927 24.804C38.8941 24.804 38.2313 24.6197 37.6683 24.2432C36.698 23.5961 36.1189 22.5529 36.1189 21.4508C36.1189 21.2351 35.9393 21.0586 35.7196 21.0586C35.5 21.0586 35.3203 21.2351 35.3203 21.4508C35.3203 22.8156 36.0311 24.102 37.217 24.8942C37.9078 25.353 38.7424 25.5884 39.6927 25.5884C39.8045 25.5884 40.1998 25.5844 40.667 25.5021C40.8826 25.4628 41.0304 25.2589 40.9905 25.0471C40.9505 24.8354 40.7429 24.6903 40.5273 24.7295Z" fill="url(#paint4_linear)"/>
<path fill-rule="evenodd" clip-rule="evenodd" d="M49.0234 4.2244H28.6888V0.959154C28.6888 0.429371 28.2516 0 27.7122 0H22.2878C21.7484 0 21.3112 0.429371 21.3112 0.959154V4.2244H0.976562C0.437164 4.2244 0 4.65377 0 5.18355V22.4903C0 23.0201 0.437164 23.4494 0.976562 23.4494C1.51596 23.4494 1.95312 23.0201 1.95312 22.4903V6.1427H21.3112V9.40795C21.3112 9.93736 21.7484 10.3671 22.2878 10.3671H27.7122C28.2516 10.3671 28.6888 9.93736 28.6888 9.40795V6.1427H48.0469V8.06101C48.0469 8.59079 48.484 9.02017 49.0234 9.02017C49.5628 9.02017 50 8.59079 50 8.06101V5.18355C50 4.65377 49.5628 4.2244 49.0234 4.2244ZM26.7357 8.4488H23.2643V1.91831H26.7357V8.4488Z" fill="url(#paint5_linear)"/>
<path fill-rule="evenodd" clip-rule="evenodd" d="M49.0234 14.7734C48.484 14.7734 48.0469 15.2028 48.0469 15.7326V32.0802H1.95312V30.1615C1.95312 29.6317 1.51596 29.2023 0.976562 29.2023C0.437164 29.2023 0 29.6317 0 30.1615V33.0393C0 33.5691 0.437164 33.9985 0.976562 33.9985H49.0234C49.5628 33.9985 50 33.5691 50 33.0393V15.7326C50 15.2028 49.5628 14.7734 49.0234 14.7734Z" fill="url(#paint6_linear)"/>
<path fill-rule="evenodd" clip-rule="evenodd" d="M6.5321 25.5316H20.3901C20.9295 25.5316 21.3667 25.1022 21.3667 24.5724C21.3667 24.0427 20.9295 23.6133 20.3901 23.6133H6.5321C5.99309 23.6133 5.55554 24.0427 5.55554 24.5724C5.55554 25.1022 5.99309 25.5316 6.5321 25.5316Z" fill="url(#paint7_linear)"/>
<path fill-rule="evenodd" clip-rule="evenodd" d="M6.5321 14.6136H20.3901C20.9295 14.6136 21.3667 14.1842 21.3667 13.6545C21.3667 13.1247 20.9295 12.6953 20.3901 12.6953H6.5321C5.99309 12.6953 5.55554 13.1247 5.55554 13.6545C5.55554 14.1842 5.99309 14.6136 6.5321 14.6136Z" fill="url(#paint8_linear)"/>
<path fill-rule="evenodd" clip-rule="evenodd" d="M6.5321 20.0707H20.3901C20.9295 20.0707 21.3667 19.6413 21.3667 19.1115C21.3667 18.5817 20.9295 18.1523 20.3901 18.1523H6.5321C5.99309 18.1523 5.55554 18.5817 5.55554 19.1115C5.55554 19.6413 5.99309 20.0707 6.5321 20.0707Z" fill="url(#paint9_linear)"/>
<path fill-rule="evenodd" clip-rule="evenodd" d="M0.976562 27.2855C1.51443 27.2855 1.95312 26.8546 1.95312 26.3263C1.95312 25.7981 1.51443 25.3672 0.976562 25.3672C0.43869 25.3672 0 25.7981 0 26.3263C0 26.8543 0.43869 27.2855 0.976562 27.2855Z" fill="url(#paint10_linear)"/>
<path fill-rule="evenodd" clip-rule="evenodd" d="M49.0234 10.9375C48.4856 10.9375 48.0469 11.3684 48.0469 11.8967C48.0469 12.4249 48.4856 12.8558 49.0234 12.8558C49.5613 12.8558 50 12.4249 50 11.8967C50 11.3684 49.5613 10.9375 49.0234 10.9375Z" fill="url(#paint11_linear)"/>
<defs>
<linearGradient id="paint0_linear" x1="35.7633" y1="17.2188" x2="35.7633" y2="27.0391" gradientUnits="userSpaceOnUse">
<stop stop-color="#1B4899"/>
<stop offset="1" stop-color="#019BD2"/>
</linearGradient>
<linearGradient id="paint1_linear" x1="35.7674" y1="11.5195" x2="35.7674" y2="13.4574" gradientUnits="userSpaceOnUse">
<stop stop-color="#1B4899"/>
<stop offset="1" stop-color="#019BD2"/>
</linearGradient>
<linearGradient id="paint2_linear" x1="35.7556" y1="15.3086" x2="35.7556" y2="27.2076" gradientUnits="userSpaceOnUse">
<stop stop-color="#1B4899"/>
<stop offset="1" stop-color="#019BD2"/>
</linearGradient>
<linearGradient id="paint3_linear" x1="35.7642" y1="13.4336" x2="35.7642" y2="17.5766" gradientUnits="userSpaceOnUse">
<stop stop-color="#1B4899"/>
<stop offset="1" stop-color="#019BD2"/>
</linearGradient>
<linearGradient id="paint4_linear" x1="38.1586" y1="21.0586" x2="38.1586" y2="25.5884" gradientUnits="userSpaceOnUse">
<stop stop-color="#1B4899"/>
<stop offset="1" stop-color="#019BD2"/>
</linearGradient>
<linearGradient id="paint5_linear" x1="25" y1="0" x2="25" y2="23.4494" gradientUnits="userSpaceOnUse">
<stop stop-color="#1B4899"/>
<stop offset="1" stop-color="#019BD2"/>
</linearGradient>
<linearGradient id="paint6_linear" x1="25" y1="14.7734" x2="25" y2="33.9985" gradientUnits="userSpaceOnUse">
<stop stop-color="#1B4899"/>
<stop offset="1" stop-color="#019BD2"/>
</linearGradient>
<linearGradient id="paint7_linear" x1="13.4611" y1="23.6133" x2="13.4611" y2="25.5316" gradientUnits="userSpaceOnUse">
<stop stop-color="#1B4899"/>
<stop offset="1" stop-color="#019BD2"/>
</linearGradient>
<linearGradient id="paint8_linear" x1="13.4611" y1="12.6953" x2="13.4611" y2="14.6136" gradientUnits="userSpaceOnUse">
<stop stop-color="#1B4899"/>
<stop offset="1" stop-color="#019BD2"/>
</linearGradient>
<linearGradient id="paint9_linear" x1="13.4611" y1="18.1523" x2="13.4611" y2="20.0707" gradientUnits="userSpaceOnUse">
<stop stop-color="#1B4899"/>
<stop offset="1" stop-color="#019BD2"/>
</linearGradient>
<linearGradient id="paint10_linear" x1="0.976562" y1="25.3672" x2="0.976562" y2="27.2855" gradientUnits="userSpaceOnUse">
<stop stop-color="#1B4899"/>
<stop offset="1" stop-color="#019BD2"/>
</linearGradient>
<linearGradient id="paint11_linear" x1="49.0234" y1="10.9375" x2="49.0234" y2="12.8558" gradientUnits="userSpaceOnUse">
<stop stop-color="#1B4899"/>
<stop offset="1" stop-color="#019BD2"/>
</linearGradient>
</defs>
</svg>
